<?xml version="1.0" encoding="utf-8"?>
<!-- Svg Vector Icons : http://www.sfont.cn -->
<!DOCTYPE svg PUBLIC "-//W3C//DTD SVG 1.1//EN" "http://www.w3.org/Graphics/SVG/1.1/DTD/svg11.dtd">
<svg version="1.1" xmlns="http://www.w3.org/2000/svg" xmlns:xlink="http://www.w3.org/1999/xlink" x="0px" y="0px" viewBox="0 0 1000 1000" enable-background="new 0 0 1000 1000" xml:space="preserve">
<metadata> Svg Vector Icons : http://www.sfont.cn </metadata>
<g><g transform="translate(0.000000,511.000000) scale(0.100000,-0.100000)"><path d="M4526.2,4197.6c-1502.6-165-2537.3-871.7-2873.2-1958.8c-58.2-188.3-116.5-479.5-116.5-590.2c-1.9-56.3-11.7-66-153.4-132c-326.2-155.3-564.9-471.7-685.3-908.5c-29.1-108.7-36.9-176.7-29.1-266c7.8-67.9,3.9-122.3-5.8-122.3s-52.4-48.5-93.2-106.8C492.2,6.3,461.1-83,439.7-250c-9.7-77.6-31.1-112.6-147.5-242.7C148.5-651.8,100-760.5,100-911.9c0-332,322.3-522.2,772.6-460.1l159.2,23.3l126.2-116.5c172.8-163.1,372.7-260.1,557.2-269.9c93.2-5.8,174.7,2,234.9,19.4l93.2,29.1l141.7-100.9c231-166.9,440.7-238.8,739.6-258.2c502.8-31.1,992,190.2,1240.5,564.9l69.9,104.8l128.1-46.6c71.8-27.2,182.5-52.4,246.5-60.2c102.9-9.7,120.4-17.5,147.5-69.9c110.7-203.8,326.1-493.1,491.2-662l188.3-192.2l5.8-632.9c5.8-535.8,11.6-642.6,38.8-700.8c50.5-108.7,112.6-176.7,198-215.5c167-75.7,248.5-46.6,677.5,234.9l267.9,176.7l58.2-48.5c87.4-75.7,231-108.7,454.3-108.7c217.4,0,289.3,17.5,407.7,99l79.6,52.4l267.9-200c145.6-110.7,293.1-209.7,326.1-221.3c192.2-67.9,394.1,31.1,493.1,240.7c44.7,95.1,46.6,106.8,46.6,698.9v601.8l118.4,95.1c279.6,225.2,588.2,619.3,763,972.6c205.8,413.5,273.7,708.6,258.2,1126c-11.7,328.1-48.5,475.6-194.1,766.8c-85.4,170.8-130.1,233-285.4,394.1c-198,207.7-347.5,322.3-535.8,417.4c-116.5,58.2-120.4,62.1-133.9,153.4c-23.3,161.1-102.9,444.6-176.7,625.1c-225.2,561-695,1102.7-1273.5,1461.8c-458.1,283.4-992,481.4-1578.3,580.5C5452.2,4209.3,4798,4228.7,4526.2,4197.6z M5254.2,3869.5c609.6-44.6,1110.4-178.6,1605.5-431c735.7-374.7,1250.2-951.2,1481.2-1655.9c64-196.1,81.5-281.5,56.3-281.5c-5.8,0-81.5,17.5-168.9,40.8c-332,85.4-561.1,116.5-957.1,128.1c-586.3,17.5-992-36.9-1440.5-192.2c-403.8-137.8-646.5-285.4-906.6-549.4c-328.1-332-473.7-685.3-506.7-1225c-13.6-233,11.7-419.3,101-733.8c27.2-93.2,46.6-174.7,42.7-176.7c-3.9-3.9-50.5,13.6-104.8,38.8l-100.9,44.6v211.6c-3.9,621.2-198,1054.1-745.5,1650.1c-524.2,572.7-1032.8,860-1576.3,893l-190.3,11.6l11.7,114.6c40.8,351.4,203.8,749.3,429,1044.4c116.5,151.4,368.8,386.3,535.8,498.9c491.2,332,1127.9,528,1842.3,566.9c143.7,9.7,275.7,17.5,291.2,17.5C4968.8,3887,5104.7,3879.3,5254.2,3869.5z M2280.1,1297.3c180.5-38.8,495-192.2,685.3-335.8c349.4-264,712.5-724.1,931.8-1178.4c229.1-471.7,240.7-830.9,36.9-1129.9c-217.4-322.3-710.5-500.9-1139.6-411.6c-126.2,25.3-363,135.9-413.5,192.2c-34.9,38.8-34.9,40.8,3.9,112.6c143.7,256.3,132,551.3-33,887.2c-246.6,497-786.2,902.7-1203.6,902.7h-120.4l13.6,83.5c38.8,258.2,135.9,464,293.1,621.2C1575.4,1283.7,1913.2,1374.9,2280.1,1297.3z M6941.2,808.1c5.8-287.3,21.3-1093,31.1-1791.9c11.6-698.9,23.3-1300.7,29.1-1337.6c25.2-188.3,248.5-211.6,293.1-29.1c11.7,46.6-15.5,2092.8-42.7,3187.7l-13.6,489.2h133.9c269.9,0,654.2-62.1,964.9-157.3c122.3-36.9,188.3-66,182.5-81.5c-64.1-172.8-1028.9-3377.9-1028.9-3418.7c0-34.9,15.5-69.9,42.7-93.2c58.2-46.6,184.4-46.6,231,0c19.4,19.4,244.6,724.1,547.5,1706.4l514.5,1671.5l75.7-40.8c110.6-62.1,330-273.7,431-411.6c93.2-132,184.4-318.4,219.4-452.3l23.3-81.5L8768-1236.1c-547.5-817.3-805.7-1217.2-805.7-1252.2c0-79.6,83.5-149.5,170.8-141.7l71.8,5.8L8902-1585.6L9597-547l-11.7-120.4c-38.8-429-390.2-976.5-931.8-1457.9c-114.5-102.9-217.4-207.7-227.1-231c-15.5-44.6,5.8-147.5,40.8-190.2c13.6-17.5,19.4-188.3,15.5-533.9c-5.8-506.7-5.8-508.6-50.5-545.5c-58.2-46.6-42.7-54.4-465.9,248.5c-205.8,145.6-355.3,238.8-384.4,238.8c-33,0-60.2-23.3-97.1-81.5C7380-3389.1,7376.1-3391,7164.5-3391h-190.3l-106.8,106.8c-71.8,73.8-120.4,106.8-153.4,106.8s-168.9-89.3-401.9-262.1c-380.5-283.4-392.1-287.3-479.5-192.2c-44.6,48.5-44.6,56.3-44.6,561.1v510.6l48.5,58.2c27.2,33,48.5,77.7,48.5,102.9c0,40.8,13.6,31.1,102.9-66c85.4-93.2,110.7-112.6,165-110.7c79.6,0,159.2,73.8,159.2,147.5c0,36.9-209.7,337.8-755.2,1083.3C5143.6-778,4792.2-296.5,4778.6-273.3c-21.3,35-19.4,71.8,7.8,223.3c60.2,326.1,188.3,582.4,399.9,799.8c69.9,71.8,135.9,130.1,147.5,130.1c11.7,0,271.8-728,578.5-1615.2c584.3-1692.8,590.1-1704.5,698.9-1704.5c62.1,0,147.5,71.8,147.5,122.3c0,23.3-254.3,788.2-563,1700.6c-310.6,912.4-557.2,1665.7-549.4,1673.4c33,29.1,394.1,151.4,568.8,190.2c223.3,52.4,392.1,73.8,574.6,77.7l137.8,1.9L6941.2,808.1z M1227.9,14.1c401.9-118.4,720.2-446.5,862-887.2c87.4-273.7,56.3-444.6-95.1-518.3c-178.6-85.4-378.6-31.1-586.3,161.1L1292-1121.6l-23.3,165c-38.8,289.2-180.5,506.7-411.6,623.2L756.2-281l9.7,77.7c13.6,99,64.1,170.8,151.4,213.5C998.8,52.9,1090.1,54.8,1227.9,14.1z M732.9-613c114.5-69.9,201.9-227.1,201.9-361.1c0-54.3-7.8-64.1-71.8-83.5c-40.8-11.7-116.5-27.2-170.8-33c-118.4-13.6-219.4,31.1-258.2,112.6c-23.3,48.5-23.3,67.9,5.8,139.8c40.8,110.7,157.2,262.1,200,262.1C657.2-576.1,699.9-593.6,732.9-613z M5178.5-1337.1c178.6-248.5,394.1-547.5,479.5-662l153.4-211.6l-240.7,213.5c-351.4,314.5-561,586.3-662,858.1c-50.5,132-81.5,252.4-66,252.4C4848.5-886.7,4998-1090.5,5178.5-1337.1z"/></g></g>
</svg>