<?xml version="1.0" encoding="utf-8"?>
<!-- Svg Vector Icons : http://www.sfont.cn -->
<!DOCTYPE svg PUBLIC "-//W3C//DTD SVG 1.1//EN" "http://www.w3.org/Graphics/SVG/1.1/DTD/svg11.dtd">
<svg version="1.1" xmlns="http://www.w3.org/2000/svg" xmlns:xlink="http://www.w3.org/1999/xlink" x="0px" y="0px" viewBox="0 0 1000 1000" enable-background="new 0 0 1000 1000" xml:space="preserve">
<metadata> Svg Vector Icons : http://www.sfont.cn </metadata>
<g><path d="M318,906.5c-38.5,0-77.1,0-115.6,0c-9.8,0-9.6-0.4-10.5-9.8c-1.3-12.7-3.5-25.2-5.2-37.9c-1.2-8.6-2.3-17.2-3.3-25.8c-1.8-15.6-3.4-31.3-5.4-46.9c-2-15.4-3.9-30.7-6.8-45.9c-0.8-4.2-3.9-9-7.5-11.6c-22.9-16.6-46.1-32.8-69.4-48.9c-21.4-14.9-42.7-30-64.8-43.9c-8.7-5.5-11.4-12.7-12.9-21.2c-5.5-32.1-7.9-64.5-5.8-96.9c1.5-22.6,4.2-45.1,8.3-67.3c3.8-20.6,9.2-41.1,15.6-61.1c10.7-33.9,25.9-66.3,46.4-95.6c26.2-37.7,54.8-74,91.3-103.3c29.2-23.5,59.3-46.2,93.2-63.1c34.1-17,69.1-32.3,107-40c21.9-4.5,43.7-9.5,65.7-13.4c12-2.1,24.4-2.8,36.6-3.2c16.1-0.5,32.3-0.9,48.3,0.1c22.2,1.3,44.7,2,66.5,6.1c48.1,9,94.5,22.8,138.3,45c32.9,16.7,62.6,37.3,91.6,59.5c38.5,29.5,68.8,65.7,96.3,104.5c26.7,37.6,44.3,78.8,56.2,122.5c5,18.3,7.9,37.1,12,55.7c7.6,34.5,6.2,69.4,5,104.2c-0.6,18.9-5.4,37.7-8.6,56.4c-0.3,2-2.6,3.9-4.5,5.3c-30.4,21.4-60.9,42.6-91.3,63.9c-16.5,11.5-33,23.1-49.4,34.8c-2.6,1.9-5.4,4.9-6.2,7.8c-2.2,7.8-3.8,15.9-4.7,23.9c-2.7,22.4-4.8,44.9-7.6,67.2c-2.3,17.7-5.4,35.3-7.9,52.9c-0.9,6.4-1.3,13-2.1,19.4c-0.7,4.9-3.7,6.3-8.9,6.2c-47.9-0.1-95.7,0.1-143.6,0.2c-27.7,0.1-55.4,0.6-83.1,0c-9.6-0.2-17.5,2.5-25,7.7c-16.1,11.2-33.8,18.1-53.9,15.4c-8.4-1.1-16.7-4.2-24.8-7.1c-5.3-1.9-10.8-4.5-14.9-8c-9.2-7.9-19.9-7.8-31.1-7.8C387,906.6,352.5,906.5,318,906.5z M888.7,457.2c-3.7,3.2-5.2,4.4-6.6,5.7c-20.4,19.2-40.8,38.3-61.1,57.6c-30.3,28.8-60.6,57.5-90.8,86.4c-27.9,26.7-55.6,53.6-83.5,80.2c-3.6,3.4-8.2,6-12.3,8.9c-0.5-0.5-1-1-1.4-1.5c1.3-2,2.4-4.1,4-5.8c9.9-11.1,20-22.1,29.8-33.4c24.3-28.1,48.4-56.4,72.6-84.7c30-34.9,60.1-69.7,89.9-104.7c16.2-19,32-38.3,47.8-57.7c1.4-1.7,2-5.1,1.4-7.2c-6.7-21.3-15.8-41.6-29.3-59.8c-8.8-11.8-17.5-23.9-31.7-31.9c-74.9,121.3-149.5,242.2-224.1,363.1c-0.8-0.4-1.7-0.9-2.5-1.3c2.7-6.1,5-12.3,8-18.3c14.8-29.4,30-58.7,44.7-88.2c11-21.9,21.4-44.1,32.3-66c21.5-43.2,43.3-86.2,64.7-129.4c15.2-30.7,29.5-61.8,44.9-92.4c3.4-6.7,0.2-10.4-3.5-14.7c-23.7-27.3-53.5-46-87.8-58.6c-5-1.8-6.9-0.8-8.1,3.7c-2.3,8.1-4.7,16.3-7.1,24.3c-5.4,17.5-11.1,34.9-16.4,52.4c-5.9,19.5-11.2,39.1-17.2,58.5c-4.5,14.4-10.1,28.5-14.6,42.9c-6,19.2-11.3,38.5-17.1,57.7c-6.3,21.1-12.9,42-19.2,63.1c-5.8,19.5-11.1,39-16.9,58.5c-6.5,21.7-13.2,43.5-19.9,65.1c-2.3,7.5-4.8,14.9-7.3,22.3c-0.8-0.1-1.6-0.2-2.5-0.2c0-4-0.7-8.1,0.2-11.9c1.6-7.4,4.6-14.5,6.2-21.9c2.8-12.5,4.9-25.1,7.4-37.7c3.6-17.8,7.4-35.6,11.1-53.4c3.3-15.8,6.5-31.7,9.8-47.5c3.7-17.4,7.5-34.9,11.2-52.3c2.5-12.1,4.8-24.2,7.3-36.3c3.6-17.3,7.4-34.5,11-51.8c3.3-15.8,6.4-31.7,9.7-47.5c3.6-16.8,7.3-33.5,11.1-50.2c4.1-18.6,8-37.2,12.6-55.7c1-4.2,0.4-6-3.5-7.9c-34.9-17.1-71.8-23.7-110.8-20.8c-5.8,0.4-7.7,2.3-7.9,7.8c-1.8,41.7-3.8,83.3-5.7,125c-1,21.5-2.1,43.1-3,64.6c-1.3,33.2-2.3,66.4-3.6,99.6c-0.4,9.9-1.2,19.9-1.6,29.8c-1.7,42.9-3.2,85.8-5,128.8c-0.5,12.6-2.1,25.2-3.3,37.8c-2.4-11-4.2-21.9-4.7-32.9c-1.4-32.5-2.3-65-3.4-97.5c-1.4-41-2.4-82-4.1-123c-2.5-61.3-5.5-122.6-8.1-183.9c-0.6-14.3-0.4-28.6-0.7-43c-0.3-11.8-1.4-12.5-13.4-13.2c-36.6-1.9-71.3,4.9-104.2,20.6c-5.5,2.6-6.2,5.7-5.1,10.3c2.7,11,5.8,21.9,8.4,32.9c1.2,4.9,1.6,10,2.7,15c3.5,16.5,7.3,32.9,10.7,49.5c3.5,16.8,6.4,33.7,9.8,50.4c4.7,23,9.7,45.9,14.4,68.9c4.4,21.7,8.3,43.6,12.8,65.3c5.6,27,11.4,53.9,17.3,80.8c7.4,34,11.3,68.8,22.4,102c0.5,1.4-0.5,3.3-0.8,5c-0.9,0.1-1.9,0.2-2.8,0.3c-23.9-75.6-45-152-67.9-227.9c-23-76.1-46.3-152-69.6-228.4c-38.3,13.3-70.2,32.9-95.3,62c-4.4,5.1-5.5,9.6-2.3,15.7c4.5,8.3,8,17.1,12.3,25.6c18.1,36.1,36.5,72.2,54.6,108.4c27.7,55.6,55.2,111.3,82.6,166.9c13.1,26.6,25.9,53.2,38.7,79.9c1.7,3.6,2.8,7.5,4.2,11.3c-0.6,0.3-1.2,0.5-1.9,0.8c-1.2-1.4-2.7-2.7-3.6-4.2c-15.6-24.9-31.3-49.8-46.7-74.9c-30.2-49.2-60.2-98.4-90.2-147.7c-22.6-37.3-44.9-74.7-67.4-112.1c-4.8-8-10-15.9-15.5-24.4c-5.8,4.9-10.9,8.5-15.1,12.9c-19.4,20.4-33.1,43.9-42.9,69.9c-3.8,9.9-3.1,17.4,4.5,25.7c18.5,20.2,36.2,41.2,53.9,62.1c19.5,23,38.6,46.3,58.1,69.2c14.4,17,29.2,33.6,43.7,50.5c25.6,29.9,51.2,59.9,76.7,90c2.3,2.7,3.9,5.8,5.8,8.7c-0.5,0.5-0.9,0.9-1.4,1.4c-3-2.1-6.4-3.9-9.1-6.5c-31.4-29.7-62.6-59.5-93.9-89.3c-30.9-29.4-61.7-58.8-92.5-88.2c-16.3-15.6-32.5-31.5-48.8-47.2c-2.9-2.8-6.1-5.3-9.6-8.4c-1.2,2.1-2.1,3-2.4,4.1c-4.1,15.1-8.6,30.2-12.1,45.4c-5.3,22.8-3.4,45.8,1.1,68.5c0.8,4,3.9,8.5,7.4,11.1c17.3,12.8,34.9,25.1,52.6,37.4c28,19.5,56.3,38.6,84.1,58.3c3.6,2.6,6.9,7.3,7.7,11.5c2.1,10.7,2.6,21.6,3.8,32.4c1,8.6,2.2,17.3,3.4,25.9c2.7,19.1,5.9,38.2,8,57.4c1.4,12.9,0.7,12.9,14.5,12.9c53.2-0.1,106.3-0.1,159.5,0c3.8,0,8.1,0.8,11.4,2.7c8.4,4.7,16.3,10.3,24.5,15.4c10.2,6.3,21.1,11.5,33.1,5.5c11.3-5.6,21.6-12.8,32.7-18.8c4.6-2.4,10-4.6,15.1-4.7c54.2-0.4,108.3-0.4,162.5-0.3c6.3,0,9.2-2,10.2-7.8c1.3-7.5,3.3-14.9,4.4-22.4c2.3-15.8,4.3-31.6,6.3-47.4c2.3-18.2,4.4-36.5,6.9-54.7c0.3-2.4,2.1-5,4.1-6.6c3.9-3.3,8.4-6.1,12.7-9.1c42.5-29.4,85.1-58.6,127.4-88.2c3.4-2.4,6.5-6.6,7.3-10.4c2-10.2,3.8-20.6,3.8-30.9c-0.1-15.4-0.7-31-3.2-46.2C898.1,486.7,893.1,473,888.7,457.2z"/></g>
</svg>